<svg xmlns="http://www.w3.org/2000/svg" width="159" height="34" fill="none" viewBox="0 0 159 34">
  <path fill="#000" d="M24.53 2.7c1.12 0 2.09.1 2.92.29.84.17 1.55.46 2.1.86.59.4 1.04.9 1.37 1.54.24.47.42 1.02.55 1.65-.7.17-1.33.35-1.9.56l-.47.17c-.44.16-.84.32-1.17.48l-.32.14-.16.32a4.8 4.8 0 0 0-.45 1.5v.03a13.2 13.2 0 0 0 .26 4.35v.01c.23.95.55 1.78.96 2.47l.14.24-.25.2-.36.32a8.6 8.6 0 0 0-1.93 2.72A10.24 10.24 0 0 0 25 24.8c0 1.54.24 2.94.76 4.19V29a9.05 9.05 0 0 0 2.2 3.12c.52.47 1.09.88 1.7 1.22-.98.23-2.06.36-3.25.36a14.6 14.6 0 0 1-2.84-.26 7.8 7.8 0 0 1-2.23-.77 5.2 5.2 0 0 1-1.48-1.3 3.68 3.68 0 0 1-.63-1.83l-.21-2.2a6.13 6.13 0 0 0 1.78-.77 6.32 6.32 0 0 0 1.86-1.89c.26-.4.4-.75.4-1.05 0-.4-.2-.6-.62-.6-.03 0-.06 0-.09.02h-.07c-1.11 2.29-2.89 3.43-5.33 3.43-.6 0-1.18-.06-1.71-.19a4.98 4.98 0 0 1-2.75-1.72 9.8 9.8 0 0 1-1.17-1.73h-.14a.83.83 0 0 0-.45.12c-.13.07-.19.21-.19.41 0 .27.1.55.28.85a8.4 8.4 0 0 0 2.33 2.47 6.1 6.1 0 0 0 2.35.86l-.2 4.42c-.4.26-.83.5-1.28.72-.44.22-.94.4-1.5.56-.57.14-1.21.25-1.93.33-.7.08-1.52.12-2.44.12-.88 0-1.8-.09-2.75-.26a10 10 0 0 1-2.63-.84c-.8-.4-1.46-.92-2-1.54A3.5 3.5 0 0 1 0 28.75c0-.49.02-1.14.07-1.97l.19-2.84.3-3.44a328.67 328.67 0 0 1 .73-7.45 212.84 212.84 0 0 1 .99-8.2c.45-.4.97-.74 1.55-1.02a11.92 11.92 0 0 1 3.73-1 13.92 13.92 0 0 1 4.98.23c1.03.23 1.88.54 2.56.91l1.29 4.3-.82 3.43a3.48 3.48 0 0 0-.1.68c0 .53.32.8.94.84l2.23-9.23a9.48 9.48 0 0 1 2.4-.86 15.96 15.96 0 0 1 3.5-.42Z"/>
  <path fill="#000" fill-rule="evenodd" d="M38.14 7.2c2.02 0 3.78.22 5.28.67a10.1 10.1 0 0 1 3.78 1.96 7.8 7.8 0 0 1 2.25 3.13 11 11 0 0 1 .76 4.18v4.58c0 1.07.11 1.96.35 2.66.23.7.68 1.25 1.34 1.66l.02.46v.4a7.7 7.7 0 0 1-.56 3.06 5.79 5.79 0 0 1-3.52 3.34 7.15 7.15 0 0 1-4.02.19A5.65 5.65 0 0 1 41 31.9a4.82 4.82 0 0 1-.89-1.47c-.27 0-.47.07-.61.2a.81.81 0 0 0-.19.57c0 .22.07.45.21.7.14.25.35.5.61.77-.5.34-1.17.6-2.02.77a12.97 12.97 0 0 1-6.48-.33 8.88 8.88 0 0 1-1.81-.84l-.09-.05a8.14 8.14 0 0 1-.68-.49l-.13-.1a7.83 7.83 0 0 1-1.4-1.51 8.44 8.44 0 0 1-1-1.92l-.02-.1-.1-.3-.05-.18a8.78 8.78 0 0 1-.26-1.33c-.04-.3-.07-.63-.08-.96L26 24.8v-.23c.03-1.38.27-2.58.73-3.6a7.6 7.6 0 0 1 2.34-2.95 8.2 8.2 0 0 1 3.23-1.5 14.33 14.33 0 0 1 4.45-.28 13.2 13.2 0 0 1 2.04.3c.05-.14.08-.27.08-.38 0-.2-.11-.37-.33-.51a2.1 2.1 0 0 0-.83-.3 7.95 7.95 0 0 0-1.2-.17 14.86 14.86 0 0 0-4.58.3l-.38.1c-.91.23-1.74.55-2.47.98a5.48 5.48 0 0 1-.55-1.2l-.14-.4-.02-.09a11.7 11.7 0 0 1-.35-1.74 11.98 11.98 0 0 1 .03-3.09l.01-.06.06-.23.02-.07.09-.26.12-.27a11.28 11.28 0 0 1 1.1-.44 27.07 27.07 0 0 1 .9-.32l.16-.05.31-.1.25-.06.21-.06.82-.2a23.95 23.95 0 0 1 6.03-.72Zm-.12 15.66c-.36 0-.62.1-.77.28a.93.93 0 0 0-.22.6c0 .32.11.54.33.66.24.13.51.19.82.19.5 0 .89-.13 1.16-.37.26-.25.4-.7.4-1.36h-1.72Zm91.27-15.78a14.7 14.7 0 0 1 6.54 1.45c-.19.43-.34.9-.47 1.38v.01a11.08 11.08 0 0 0 0 5.56v.01c.24.83.58 1.58 1.02 2.26v7.23l-.66.2c-1.2.3-2.51.46-3.92.46-1.06 0-2.1-.12-3.1-.37a9.44 9.44 0 0 1-2.53-1 .49.49 0 0 0-.17.25l-.02.26c0 .23.17.46.51.7.35.21.8.42 1.34.6a13.8 13.8 0 0 0 4 .6 15.62 15.62 0 0 0 4.55-.6v3.39a4.35 4.35 0 0 0 1.3 3.19c-.3.13-.61.26-.95.38a21.78 21.78 0 0 1-6.62.96c-2.14 0-4.09-.3-5.82-.91a13.14 13.14 0 0 1-3.65-1.97 12.04 12.04 0 0 1-1.47-1.38 12.4 12.4 0 0 1-2.38-4.1l-.02-.07-.17-.53-.02-.05-.14-.55-.02-.08-.12-.55-.01-.08c-.19-.98-.29-2.01-.29-3.1v-.14a20.46 20.46 0 0 1 .1-1.89l.02-.18.02-.15.03-.25.02-.16.04-.2.02-.15.03-.12c0-.07.02-.14.03-.2l.05-.22.04-.16c0-.05.02-.1.03-.13a11.04 11.04 0 0 1 .28-1l.07-.22a10.2 10.2 0 0 1 .15-.4l.13-.33a12.46 12.46 0 0 1 2.88-4.22l.02-.02a12.18 12.18 0 0 1 4.23-2.55c1.62-.58 3.31-.86 5.1-.86Zm.54 9.38c-.44 0-.8.13-1.06.38-.25.23-.4.55-.47.95a2.69 2.69 0 0 0 1.51.4c.39 0 .68-.08.86-.23.2-.17.3-.4.3-.66 0-.3-.1-.53-.34-.65a1.6 1.6 0 0 0-.8-.19ZM85.14 7.2c2.02 0 3.78.22 5.28.67A10.1 10.1 0 0 1 95 10.6v18.15c0 .99.22 1.9.7 2.7l.01.02c.22.35.47.67.74.97a5.8 5.8 0 0 1-1.62.86 7.15 7.15 0 0 1-4.01.19A5.65 5.65 0 0 1 88 31.9a4.82 4.82 0 0 1-.89-1.47c-.27 0-.47.07-.61.2a.81.81 0 0 0-.19.57c0 .22.07.45.21.7.14.25.35.5.61.77-.5.34-1.17.6-2.02.77a12.97 12.97 0 0 1-6.48-.33 8.75 8.75 0 0 1-2.1-1.03l-.08-.05-.23-.16-.11-.1-.19-.13a7.61 7.61 0 0 1-2.4-3.44l-.03-.12-.1-.29-.04-.17a8.78 8.78 0 0 1-.24-1.2l-.02-.12-.04-.42v-.05a12.1 12.1 0 0 1-.04-.5L73 24.8c0-1.48.24-2.76.73-3.83a7.48 7.48 0 0 1 2.31-2.93l.08-.05.25-.18.06-.04.3-.2.03-.02.34-.19.06-.03.27-.14.1-.05.32-.14.03-.01.03-.02a12.2 12.2 0 0 1 4.34-.8c.56.01 1.06.04 1.5.08a13.2 13.2 0 0 1 2.04.3c.05-.15.08-.28.08-.4 0-.2-.11-.36-.33-.5a2.1 2.1 0 0 0-.83-.3 7.95 7.95 0 0 0-1.2-.17 14.69 14.69 0 0 0-4.58.3c-1.05.24-2.01.6-2.85 1.08l-.3-.56-.02-.06a8.58 8.58 0 0 1-.53-1.58 12.08 12.08 0 0 1-.17-4.39 4.05 4.05 0 0 1 .17-.55l.12-.27c.4-.18.92-.39 1.55-.6a18.16 18.16 0 0 1 2.73-.75l.39-.08.07-.02c.56-.1 1.16-.21 1.78-.3 1.02-.14 2.11-.2 3.27-.2Zm-.12 15.66c-.36 0-.62.1-.77.28a.93.93 0 0 0-.22.6c0 .32.11.54.33.66.24.13.51.19.82.19.5 0 .89-.13 1.15-.37.27-.25.4-.7.4-1.36h-1.71Z" clip-rule="evenodd"/>
  <path fill="#000" d="M101.92 0c.81 0 1.6.09 2.37.26.78.17 1.47.44 2.06.81.61.36 1.1.84 1.46 1.43.38.57.56 1.28.56 2.1v2.48a18.6 18.6 0 0 1-1.1 6.06c-.11.18-.27.38-.5.61l-.65.73c-.2.25-.38.49-.54.72-.16.24-.24.43-.24.59 0 .28.2.51.57.7a13.68 13.68 0 0 0 2.96-3.83c.37-.74.7-1.52.98-2.36.3-.86.58-1.8.85-2.85l.75-.12.94-.16a11.98 11.98 0 0 1 1.64-.21c1.17 0 2.23.14 3.17.42a6.42 6.42 0 0 1 2.91 1.67 13.45 13.45 0 0 0-3.98 5.3 15.94 15.94 0 0 0-1.13 6.2c0 2.19.34 4.2 1.06 6a13.02 13.02 0 0 0 3.08 4.6c.36.34.73.64 1.11.93-.5.46-1.11.83-1.83 1.13-.83.32-1.8.49-2.91.49a7 7 0 0 1-3-.63 7.2 7.2 0 0 1-2.35-1.85 9.6 9.6 0 0 1-1.65-2.9 15.3 15.3 0 0 1-.84-3.82l-1.13.49a13.61 13.61 0 0 0 .59 3.35 13.13 13.13 0 0 0 1.46 2.97 7.46 7.46 0 0 1-2.7 1.73c-1.1.44-2.35.66-3.76.66-.7 0-1.43-.1-2.16-.3a5.4 5.4 0 0 1-3.53-2.67l-.04-.1-.08-.16-.02-.06a3.87 3.87 0 0 1-.14-.43l-.03-.1a4.22 4.22 0 0 1-.09-.49v-.06a4.9 4.9 0 0 1-.03-.27l-.01-.31V1.49c.72-.42 1.6-.77 2.65-1.05 1.07-.3 2.16-.44 3.27-.44Zm50.23 7.43a11.38 11.38 0 0 1 4.58.95c.34.17.64.35.87.52.25.65.43 1.34.54 2.08a14.57 14.57 0 0 1-.19 5.3c-.22.84-.46 1.53-.73 2.07a10.98 10.98 0 0 1-2.18.7c-.44.1-.9.18-1.4.24a15.94 15.94 0 0 1-2.87.02 23 23 0 0 1-1.08-.11 30.97 30.97 0 0 1-1.74-.4c-.13.12-.19.3-.19.54 0 .21.14.38.43.5.3.13.82.27 1.57.4v11.73a9.47 9.47 0 0 1-3.24 1.3 13.37 13.37 0 0 1-2.82.3c-.88.01-1.7-.08-2.47-.25a6.86 6.86 0 0 1-2.01-.72 4.35 4.35 0 0 1-.78-.6l-.09-.09a2.6 2.6 0 0 1-.27-.3l-.06-.09a4.2 4.2 0 0 1-.36-.61 3.12 3.12 0 0 1-.24-.92 4.15 4.15 0 0 1-.03-.52V17.44l-.09-.12a6.74 6.74 0 0 1-.97-2.1 9.94 9.94 0 0 1-.33-2.59v-.27l.01-.14v-.12c.05-.6.15-1.25.32-1.94.23-.9.58-1.7 1.05-2.4h3.6c.97 0 1.77.15 2.42.46.65.31 1.17.75 1.54 1.3-.2.23-.4.49-.58.8a7.16 7.16 0 0 0-.78 1.8 2.6 2.6 0 0 0-.11.63c0 .19.07.36.2.51.15.14.37.21.67.21a9.2 9.2 0 0 1 1.24-2.9 6.89 6.89 0 0 1 4.1-2.85c.82-.2 1.64-.3 2.47-.3Z"/>
  <path fill="#000" fill-rule="evenodd" d="M67.24 2.52c2.48 0 4.6.25 6.36.75 1.75.48 3.18 1.14 4.27 1.96.65.48 1.19 1 1.63 1.57a25.9 25.9 0 0 0-2.93.8l-.47.17c-.44.16-.83.32-1.17.48l-.32.14-.16.32a4.8 4.8 0 0 0-.45 1.5v.03a13.2 13.2 0 0 0 .26 4.35v.01c.23.95.55 1.78.96 2.47l.14.24-.25.2-.36.32a8.6 8.6 0 0 0-1.93 2.72A10.24 10.24 0 0 0 72 24.8c0 1.54.24 2.94.76 4.19V29a9.05 9.05 0 0 0 2.2 3.12c.2.19.4.36.62.52a19 19 0 0 1-1.89.4c-1.94.33-4.15.5-6.64.5a98.5 98.5 0 0 1-4.63-.1c-1.3-.05-2.41-.13-3.35-.26-1.66-.22-2.88-.74-3.64-1.56-.75-.84-1.13-2.13-1.13-3.86V6.36c0-.37.29-.76.87-1.2.6-.45 1.45-.87 2.56-1.26 1.1-.39 2.46-.72 4.06-.98 1.61-.27 3.43-.4 5.45-.4Zm.32 18.26-.28.03c-.1.01-.2.04-.25.07l.02.4v2.87c.05.03.12.05.21.07h.21c.38 0 .64-.1.8-.28.16-.2.23-.57.23-1.1v-.45c0-.54-.07-.95-.2-1.21s-.38-.4-.74-.4Zm0-8.57-.28.03c-.1.01-.2.04-.25.07l.02.4v2.63c.05.03.12.06.21.07h.21c.38 0 .64-.12.8-.35.16-.23.23-.61.23-1.14v-.14c0-.55-.07-.94-.2-1.2-.13-.24-.38-.37-.74-.37Z" clip-rule="evenodd"/>
</svg>
